<?xml version="1.0" standalone="yes"?>

<svg version="1.1" viewBox="0.0 0.0 825.0 193.0" fill="none" stroke="none" stroke-linecap="square" stroke-miterlimit="10" xmlns="http://www.w3.org/2000/svg" xmlns:xlink="http://www.w3.org/1999/xlink"><clipPath id="p.0"><path d="m0 0l825.0 0l0 193.0l-825.0 0l0 -193.0z" clip-rule="nonzero"></path></clipPath><g clip-path="url(#p.0)"><path fill="#000000" fill-opacity="0.0" d="m0 0l825.8058 0l0 193.54855l-825.8058 0z" fill-rule="nonzero"></path><path fill="#f3f3f3" d="m232.64915 49.776535l0 0c-1.5858612 -10.774307 3.6208649 -21.440216 13.410797 -27.47179c9.789917 -6.0315742 22.44609 -6.371007 32.598038 -0.87426186l0 0c3.5961304 -6.2646294 10.178101 -10.589923 17.755005 -11.667564c7.576874 -1.0776424 15.258759 1.2189417 20.722015 6.195079l0 0c3.063446 -5.6799154 9.078552 -9.496093 15.910858 -10.094354c6.8323364 -0.59826136 13.514923 2.106062 17.676422 7.1533356l0 0c5.5345764 -6.020695 14.340179 -8.555658 22.606598 -6.5079966c8.266449 2.0476618 14.508972 8.310171 16.026428 16.077705l0 0c6.7807617 1.7099018 12.429016 6.0567017 15.485382 11.917326c3.0563965 5.8606224 3.2210999 12.660156 0.4515686 18.641815l0 0c6.677063 8.034023 8.239014 18.739265 4.1029053 28.120712c-4.136078 9.381447 -13.348785 16.029655 -24.200134 17.463623c-0.07647705 8.804825 -5.2997437 16.884026 -13.656494 21.123528c-8.356781 4.239502 -18.542084 3.9772873 -26.630127 -0.68556976c-3.4450684 10.545303 -13.141785 18.304428 -24.900818 19.925156c-11.759033 1.6207428 -23.47232 -3.1874847 -30.079315 -12.347321c-8.098816 4.514923 -17.81668 5.8155212 -26.961487 3.608429c-9.144806 -2.2071075 -16.946228 -7.735985 -21.64441 -15.339447l0 0c-8.275955 0.8953247 -16.277649 -3.0686798 -20.03389 -9.9247055c-3.7562256 -6.8560257 -2.467392 -15.144577 3.226883 -20.752083l0 0c-7.3823547 -4.016945 -11.149292 -11.9879 -9.336472 -19.756332c1.8128052 -7.768425 8.794571 -13.573963 17.304565 -14.389256z" fill-rule="nonzero"></path><path fill="#000000" fill-opacity="0.0" d="m224.51747 84.33739l0 0c3.4837494 1.895607 7.508316 2.7555008 11.53331 2.4642258m5.271881 28.213242c1.730896 -0.18725586 3.4275055 -0.58379364 5.0460663 -1.1793823m43.55739 12.909912c-1.2173767 -1.6877823 -2.2366638 -3.4913254 -3.0404358 -5.379898m58.022705 -2.1982574l0 0c0.6280823 -1.9225693 1.0350342 -3.9013062 1.2140503 -5.9031982m39.071045 -14.534019c0.0814209 -9.3741 -5.6777344 -17.957115 -14.803772 -22.062393m34.900787 -23.52095c-1.4779053 3.1920547 -3.7341309 6.0236855 -6.5917664 8.272869m-9.3437805 -38.832848l0 0c0.25183105 1.2890244 0.36834717 2.5974236 0.34802246 3.9070606m-38.980377 -13.4763775l0 0c-1.3806152 1.5018644 -2.518036 3.1801777 -3.376892 4.982683m-30.210724 -2.0423212l0 0c-0.7357483 1.3641329 -1.2851562 2.8076181 -1.6355591 4.297204m-36.84201 1.175394l0 0c2.1481323 1.1631088 4.1354675 2.5630322 5.918335 4.1690216m-51.92659 24.177183l0 0c0.21858215 1.4849777 0.5639343 2.9516487 1.0328522 4.3862877" fill-rule="nonzero"></path><path stroke="#b7b7b7" stroke-width="2.0" stroke-linejoin="round" stroke-linecap="butt" d="m232.64915 49.776535l0 0c-1.5858612 -10.774307 3.6208649 -21.440216 13.410797 -27.47179c9.789917 -6.0315742 22.44609 -6.371007 32.598038 -0.87426186l0 0c3.5961304 -6.2646294 10.178101 -10.589923 17.755005 -11.667564c7.576874 -1.0776424 15.258759 1.2189417 20.722015 6.195079l0 0c3.063446 -5.6799154 9.078552 -9.496093 15.910858 -10.094354c6.8323364 -0.59826136 13.514923 2.106062 17.676422 7.1533356l0 0c5.5345764 -6.020695 14.340179 -8.555658 22.606598 -6.5079966c8.266449 2.0476618 14.508972 8.310171 16.026428 16.077705l0 0c6.7807617 1.7099018 12.429016 6.0567017 15.485382 11.917326c3.0563965 5.8606224 3.2210999 12.660156 0.4515686 18.641815l0 0c6.677063 8.034023 8.239014 18.739265 4.1029053 28.120712c-4.136078 9.381447 -13.348785 16.029655 -24.200134 17.463623c-0.07647705 8.804825 -5.2997437 16.884026 -13.656494 21.123528c-8.356781 4.239502 -18.542084 3.9772873 -26.630127 -0.68556976c-3.4450684 10.545303 -13.141785 18.304428 -24.900818 19.925156c-11.759033 1.6207428 -23.47232 -3.1874847 -30.079315 -12.347321c-8.098816 4.514923 -17.81668 5.8155212 -26.961487 3.608429c-9.144806 -2.2071075 -16.946228 -7.735985 -21.64441 -15.339447l0 0c-8.275955 0.8953247 -16.277649 -3.0686798 -20.03389 -9.9247055c-3.7562256 -6.8560257 -2.467392 -15.144577 3.226883 -20.752083l0 0c-7.3823547 -4.016945 -11.149292 -11.9879 -9.336472 -19.756332c1.8128052 -7.768425 8.794571 -13.573963 17.304565 -14.389256z" fill-rule="nonzero"></path><path stroke="#b7b7b7" stroke-width="2.0" stroke-linejoin="round" stroke-linecap="butt" d="m224.51747 84.33739l0 0c3.4837494 1.895607 7.508316 2.7555008 11.53331 2.4642258m5.271881 28.213242c1.730896 -0.18725586 3.4275055 -0.58379364 5.0460663 -1.1793823m43.55739 12.909912c-1.2173767 -1.6877823 -2.2366638 -3.4913254 -3.0404358 -5.379898m58.022705 -2.1982574l0 0c0.6280823 -1.9225693 1.0350342 -3.9013062 1.2140503 -5.9031982m39.071045 -14.534019c0.0814209 -9.3741 -5.6777344 -17.957115 -14.803772 -22.062393m34.900787 -23.52095c-1.4779053 3.1920547 -3.7341309 6.0236855 -6.5917664 8.272869m-9.3437805 -38.832848l0 0c0.25183105 1.2890244 0.36834717 2.5974236 0.34802246 3.9070606m-38.980377 -13.4763775l0 0c-1.3806152 1.5018644 -2.518036 3.1801777 -3.376892 4.982683m-30.210724 -2.0423212l0 0c-0.7357483 1.3641329 -1.2851562 2.8076181 -1.6355591 4.297204m-36.84201 1.175394l0 0c2.1481323 1.1631088 4.1354675 2.5630322 5.918335 4.1690216m-51.92659 24.177183l0 0c0.21858215 1.4849777 0.5639343 2.9516487 1.0328522 4.3862877" fill-rule="nonzero"></path><path fill="#000000" d="m276.37704 75.95575l0 -13.59375l1.8125 0l0 13.59375l-1.8125 0zm4.6676636 0l0 -9.859375l1.5 0l0 1.40625q1.09375 -1.625 3.140625 -1.625q0.890625 0 1.640625 0.328125q0.75 0.3125 1.109375 0.84375q0.375 0.515625 0.53125 1.21875q0.09375 0.46875 0.09375 1.625l0 6.0625l-1.671875 0l0 -6.0q0 -1.015625 -0.203125 -1.515625q-0.1875 -0.515625 -0.6875 -0.8125q-0.5 -0.296875 -1.171875 -0.296875q-1.0625 0 -1.84375 0.671875q-0.765625 0.671875 -0.765625 2.578125l0 5.375l-1.671875 0zm14.031982 -1.5l0.234375 1.484375q-0.703125 0.140625 -1.265625 0.140625q-0.90625 0 -1.40625 -0.28125q-0.5 -0.296875 -0.703125 -0.75q-0.203125 -0.46875 -0.203125 -1.984375l0 -5.65625l-1.234375 0l0 -1.3125l1.234375 0l0 -2.4375l1.65625 -1.0l0 3.4375l1.6875 0l0 1.3125l-1.6875 0l0 5.75q0 0.71875 0.078125 0.921875q0.09375 0.203125 0.296875 0.328125q0.203125 0.125 0.578125 0.125q0.265625 0 0.734375 -0.078125zm8.277039 -1.671875l1.71875 0.21875q-0.40625 1.5 -1.515625 2.34375q-1.09375 0.828125 -2.8125 0.828125q-2.15625 0 -3.421875 -1.328125q-1.265625 -1.328125 -1.265625 -3.734375q0 -2.484375 1.265625 -3.859375q1.28125 -1.375 3.328125 -1.375q1.984375 0 3.234375 1.34375q1.25 1.34375 1.25 3.796875q0 0.140625 -0.015625 0.4375l-7.34375 0q0.09375 1.625 0.921875 2.484375q0.828125 0.859375 2.0625 0.859375q0.90625 0 1.546875 -0.46875q0.65625 -0.484375 1.046875 -1.546875zm-5.484375 -2.703125l5.5 0q-0.109375 -1.234375 -0.625 -1.859375q-0.796875 -0.96875 -2.078125 -0.96875q-1.140625 0 -1.9375 0.78125q-0.78125 0.765625 -0.859375 2.046875zm9.094482 5.875l0 -9.859375l1.5 0l0 1.5q0.578125 -1.046875 1.0625 -1.375q0.484375 -0.34375 1.078125 -0.34375q0.84375 0 1.71875 0.546875l-0.578125 1.546875q-0.609375 -0.359375 -1.234375 -0.359375q-0.546875 0 -0.984375 0.328125q-0.421875 0.328125 -0.609375 0.90625q-0.28125 0.890625 -0.28125 1.953125l0 5.15625l-1.671875 0zm6.228302 0l0 -9.859375l1.5 0l0 1.40625q1.09375 -1.625 3.140625 -1.625q0.890625 0 1.640625 0.328125q0.75 0.3125 1.109375 0.84375q0.375 0.515625 0.53125 1.21875q0.09375 0.46875 0.09375 1.625l0 6.0625l-1.671875 0l0 -6.0q0 -1.015625 -0.203125 -1.515625q-0.1875 -0.515625 -0.6875 -0.8125q-0.5 -0.296875 -1.171875 -0.296875q-1.0625 0 -1.84375 0.671875q-0.765625 0.671875 -0.765625 2.578125l0 5.375l-1.671875 0zm17.125702 -3.171875l1.71875 0.21875q-0.40625 1.5 -1.515625 2.34375q-1.09375 0.828125 -2.8125 0.828125q-2.15625 0 -3.421875 -1.328125q-1.265625 -1.328125 -1.265625 -3.734375q0 -2.484375 1.265625 -3.859375q1.28125 -1.375 3.328125 -1.375q1.984375 0 3.234375 1.34375q1.25 1.34375 1.25 3.796875q0 0.140625 -0.015625 0.4375l-7.34375 0q0.09375 1.625 0.921875 2.484375q0.828125 0.859375 2.0625 0.859375q0.90625 0 1.546875 -0.46875q0.65625 -0.484375 1.046875 -1.546875zm-5.484375 -2.703125l5.5 0q-0.109375 -1.234375 -0.625 -1.859375q-0.796875 -0.96875 -2.078125 -0.96875q-1.140625 0 -1.9375 0.78125q-0.78125 0.765625 -0.859375 2.046875zm12.766357 4.375l0.234375 1.484375q-0.703125 0.140625 -1.265625 0.140625q-0.90625 0 -1.40625 -0.28125q-0.5 -0.296875 -0.703125 -0.75q-0.203125 -0.46875 -0.203125 -1.984375l0 -5.65625l-1.234375 0l0 -1.3125l1.234375 0l0 -2.4375l1.65625 -1.0l0 3.4375l1.6875 0l0 1.3125l-1.6875 0l0 5.75q0 0.71875 0.078125 0.921875q0.09375 0.203125 0.296875 0.328125q0.203125 0.125 0.578125 0.125q0.265625 0 0.734375 -0.078125z" fill-rule="nonzero"></path><path fill="#cfe2f3" d="m483.9134 44.38347l0 0c0 -7.410328 6.007263 -13.417589 13.417572 -13.417589l102.61368 0c3.5585327 0 6.9713745 1.4136333 9.487671 3.929922c2.5162354 2.516285 3.9298706 5.929104 3.9298706 9.487667l0 53.668755c0 7.4103317 -6.007263 13.417595 -13.4175415 13.417595l-102.61368 0c-7.410309 0 -13.417572 -6.007263 -13.417572 -13.417595z" fill-rule="nonzero"></path><path stroke="#000000" stroke-width="2.0" stroke-linejoin="round" stroke-linecap="butt" d="m483.9134 44.38347l0 0c0 -7.410328 6.007263 -13.417589 13.417572 -13.417589l102.61368 0c3.5585327 0 6.9713745 1.4136333 9.487671 3.929922c2.5162354 2.516285 3.9298706 5.929104 3.9298706 9.487667l0 53.668755c0 7.4103317 -6.007263 13.417595 -13.4175415 13.417595l-102.61368 0c-7.410309 0 -13.417572 -6.007263 -13.417572 -13.417595z" fill-rule="nonzero"></path><path fill="#000000" d="m522.02295 73.76285l1.6875 -0.140625q0.125 1.015625 0.5625 1.671875q0.4375 0.65625 1.359375 1.0625q0.9375 0.40625 2.09375 0.40625q1.03125 0 1.8125 -0.3125q0.796875 -0.3125 1.1875 -0.84375q0.390625 -0.53125 0.390625 -1.15625q0 -0.640625 -0.375 -1.109375q-0.375 -0.484375 -1.234375 -0.8125q-0.546875 -0.21875 -2.421875 -0.65625q-1.875 -0.453125 -2.625 -0.859375q-0.96875 -0.515625 -1.453125 -1.265625q-0.46875 -0.75 -0.46875 -1.6875q0 -1.03125 0.578125 -1.921875q0.59375 -0.90625 1.703125 -1.359375q1.125 -0.46875 2.5 -0.46875q1.515625 0 2.671875 0.484375q1.15625 0.484375 1.765625 1.4375q0.625 0.9375 0.671875 2.140625l-1.71875 0.125q-0.140625 -1.28125 -0.953125 -1.9375q-0.796875 -0.671875 -2.359375 -0.671875q-1.625 0 -2.375 0.609375q-0.75 0.59375 -0.75 1.4375q0 0.734375 0.53125 1.203125q0.515625 0.46875 2.703125 0.96875q2.203125 0.5 3.015625 0.875q1.1875 0.546875 1.75 1.390625q0.578125 0.828125 0.578125 1.921875q0 1.09375 -0.625 2.0625q-0.625 0.953125 -1.796875 1.484375q-1.15625 0.53125 -2.609375 0.53125q-1.84375 0 -3.09375 -0.53125q-1.25 -0.546875 -1.96875 -1.625q-0.703125 -1.078125 -0.734375 -2.453125zm19.584167 1.203125l1.71875 0.21875q-0.40625 1.5 -1.515625 2.34375q-1.09375 0.828125 -2.8125 0.828125q-2.15625 0 -3.421875 -1.328125q-1.265625 -1.328125 -1.265625 -3.734375q0 -2.484375 1.265625 -3.859375q1.28125 -1.375 3.328125 -1.375q1.984375 0 3.234375 1.34375q1.25 1.34375 1.25 3.796875q0 0.140625 -0.015625 0.4375l-7.34375 0q0.09375 1.625 0.921875 2.484375q0.828125 0.859375 2.0625 0.859375q0.90625 0 1.546875 -0.46875q0.65625 -0.484375 1.046875 -1.546875zm-5.484375 -2.703125l5.5 0q-0.109375 -1.234375 -0.625 -1.859375q-0.796875 -0.96875 -2.078125 -0.96875q-1.140625 0 -1.9375 0.78125q-0.78125 0.765625 -0.859375 2.046875zm9.094482 5.875l0 -9.859375l1.5 0l0 1.5q0.578125 -1.046875 1.0625 -1.375q0.484375 -0.34375 1.078125 -0.34375q0.84375 0 1.71875 0.546875l-0.578125 1.546875q-0.609375 -0.359375 -1.234375 -0.359375q-0.546875 0 -0.984375 0.328125q-0.421875 0.328125 -0.609375 0.90625q-0.28125 0.890625 -0.28125 1.953125l0 5.15625l-1.671875 0zm8.9626465 0l-3.75 -9.859375l1.765625 0l2.125 5.90625q0.34375 0.953125 0.625 1.984375q0.21875 -0.78125 0.625 -1.875l2.1875 -6.015625l1.71875 0l-3.734375 9.859375l-1.5625 0zm13.34375 -3.171875l1.71875 0.21875q-0.40625 1.5 -1.515625 2.34375q-1.09375 0.828125 -2.8125 0.828125q-2.15625 0 -3.421875 -1.328125q-1.265625 -1.328125 -1.265625 -3.734375q0 -2.484375 1.265625 -3.859375q1.28125 -1.375 3.328125 -1.375q1.984375 0 3.234375 1.34375q1.25 1.34375 1.25 3.796875q0 0.140625 -0.015625 0.4375l-7.34375 0q0.09375 1.625 0.921875 2.484375q0.828125 0.859375 2.0625 0.859375q0.90625 0 1.546875 -0.46875q0.65625 -0.484375 1.046875 -1.546875zm-5.484375 -2.703125l5.5 0q-0.109375 -1.234375 -0.625 -1.859375q-0.796875 -0.96875 -2.078125 -0.96875q-1.140625 0 -1.9375 0.78125q-0.78125 0.765625 -0.859375 2.046875zm9.094482 5.875l0 -9.859375l1.5 0l0 1.5q0.578125 -1.046875 1.0625 -1.375q0.484375 -0.34375 1.078125 -0.34375q0.84375 0 1.71875 0.546875l-0.578125 1.546875q-0.609375 -0.359375 -1.234375 -0.359375q-0.546875 0 -0.984375 0.328125q-0.421875 0.328125 -0.609375 0.90625q-0.28125 0.890625 -0.28125 1.953125l0 5.15625l-1.671875 0z" fill-rule="nonzero"></path><path fill="#cfe2f3" d="m419.69815 67.09974l51.921265 0l0 -4.1181107l8.236237 8.236221l-8.236237 8.236221l0 -4.1181107l-51.921265 0z" fill-rule="nonzero"></path><path stroke="#000000" stroke-width="2.0" stroke-linejoin="round" stroke-linecap="butt" d="m419.69815 67.09974l51.921265 0l0 -4.1181107l8.236237 8.236221l-8.236237 8.236221l0 -4.1181107l-51.921265 0z" fill-rule="nonzero"></path><path fill="#000000" fill-opacity="0.0" d="m5.3884516 79.45407l137.16534 0l0 32.031494l-137.16534 0z" fill-rule="nonzero"></path><path fill="#000000" d="m15.247827 101.25407l0 -9.3125l1.140624 0l0 3.34375q0.796875 -0.921875 2.015625 -0.921875q0.75 0 1.296875 0.296875q0.5625 0.296875 0.796875 0.8125q0.234375 0.515625 0.234375 1.515625l0 4.265625l-1.140625 0l0 -4.265625q0 -0.859375 -0.375 -1.25q-0.359375 -0.390625 -1.046875 -0.390625q-0.5 0 -0.953125 0.265625q-0.453125 0.25 -0.640625 0.703125q-0.1875 0.453125 -0.1875 1.25l0 3.6875l-1.140624 0zm9.912475 -1.015625l0.15625 1.0q-0.484375 0.109375 -0.859375 0.109375q-0.625 0 -0.96875 -0.203125q-0.34375 -0.203125 -0.484375 -0.515625q-0.140625 -0.328125 -0.140625 -1.34375l0 -3.890625l-0.828125 0l0 -0.875l0.828125 0l0 -1.671875l1.140625 -0.6875l0 2.359375l1.15625 0l0 0.875l-1.15625 0l0 3.953125q0 0.484375 0.0625 0.625q0.0625 0.140625 0.1875 0.21875q0.140625 0.078125 0.390625 0.078125q0.203125 0 0.515625 -0.03125zm3.7029877 0l0.15625 1.0q-0.484375 0.109375 -0.859375 0.109375q-0.625 0 -0.96875 -0.203125q-0.34375 -0.203125 -0.484375 -0.515625q-0.140625 -0.328125 -0.140625 -1.34375l0 -3.890625l-0.828125 0l0 -0.875l0.828125 0l0 -1.671875l1.140625 -0.6875l0 2.359375l1.15625 0l0 0.875l-1.15625 0l0 3.953125q0 0.484375 0.0625 0.625q0.0625 0.140625 0.1875 0.21875q0.140625 0.078125 0.390625 0.078125q0.203125 0 0.515625 -0.03125zm1.2029877 3.59375l0 -9.3125l1.03125 0l0 0.875q0.375 -0.515625 0.828125 -0.765625q0.46875 -0.265625 1.140625 -0.265625q0.859375 0 1.515625 0.453125q0.65625 0.4375 0.984375 1.25q0.34375 0.796875 0.34375 1.765625q0 1.03125 -0.375 1.859375q-0.359375 0.828125 -1.078125 1.28125q-0.703125 0.4375 -1.484375 0.4375q-0.5625 0 -1.015625 -0.234375q-0.453125 -0.25 -0.75 -0.625l0 3.28125l-1.140625 0zm1.03125 -5.90625q0 1.296875 0.53125 1.921875q0.53125 0.625 1.265625 0.625q0.765625 0 1.3125 -0.640625q0.546875 -0.65625 0.546875 -2.0q0 -1.296875 -0.53125 -1.9375q-0.53125 -0.640625 -1.265625 -0.640625q-0.734375 0 -1.296875 0.6875q-0.5625 0.671875 -0.5625 1.984375zm6.6937256 -2.109375l0 -1.296875l1.296875 0l0 1.296875l-1.296875 0zm0 5.4375l0 -1.296875l1.296875 0l0 1.296875l-1.296875 0zm2.5311127 0.15625l2.703125 -9.625l0.90625 0l-2.6875 9.625l-0.921875 0zm3.7029877 0l2.703125 -9.625l0.90625 0l-2.6875 9.625l-0.921875 0zm4.8904877 -0.15625l0 -1.296875l1.296875 0l0 1.296875l-1.296875 0zm3.7029877 0l0 -1.296875l1.296875 0l0 1.296875l-1.296875 0zm3.7029877 0l0 -1.296875l1.296875 0l0 1.296875l-1.296875 0zm3.7029877 0l0 -1.296875l1.296875 0l0 1.296875l-1.296875 0zm2.5154877 0.15625l2.703125 -9.625l0.90625 0l-2.6875 9.625l-0.921875 0z" fill-rule="nonzero"></path><path fill="#000000" d="m67.18078 93.59782l0 -1.65625l1.78125 0l0 1.65625l-1.78125 0zm0 7.65625l0 -6.734375l1.78125 0l0 6.734375l-1.78125 0zm9.827988 0l-1.78125 0l0 -3.4375q0 -1.09375 -0.125 -1.40625q-0.109375 -0.328125 -0.375 -0.5q-0.25 -0.1875 -0.609375 -0.1875q-0.453125 0 -0.828125 0.265625q-0.359375 0.25 -0.5 0.671875q-0.140625 0.40625 -0.140625 1.546875l0 3.046875l-1.78125 0l0 -6.734375l1.65625 0l0 0.984375q0.875 -1.140625 2.21875 -1.140625q0.59375 0 1.078125 0.21875q0.484375 0.203125 0.734375 0.53125q0.265625 0.328125 0.359375 0.75q0.09375 0.421875 0.09375 1.203125l0 4.1875zm8.188232 0l-1.65625 0l0 -0.984375q-0.40625 0.578125 -0.96875 0.859375q-0.5625 0.28125 -1.125 0.28125q-1.171875 0 -2.0 -0.9375q-0.828125 -0.9375 -0.828125 -2.609375q0 -1.71875 0.796875 -2.609375q0.8125 -0.890625 2.046875 -0.890625q1.125 0 1.953125 0.9375l0 -3.359375l1.78125 0l0 9.3125zm-4.75 -3.515625q0 1.078125 0.296875 1.5625q0.421875 0.703125 1.203125 0.703125q0.609375 0 1.046875 -0.515625q0.4375 -0.53125 0.4375 -1.578125q0 -1.15625 -0.421875 -1.671875q-0.421875 -0.515625 -1.078125 -0.515625q-0.625 0 -1.0625 0.515625q-0.421875 0.5 -0.421875 1.5zm10.625732 1.375l1.765625 0.296875q-0.34375 0.96875 -1.078125 1.484375q-0.734375 0.515625 -1.84375 0.515625q-1.765625 0 -2.609375 -1.15625q-0.671875 -0.921875 -0.671875 -2.3125q0 -1.6875 0.875 -2.625q0.890625 -0.953125 2.21875 -0.953125q1.515625 0 2.375 1.0q0.875 0.984375 0.828125 3.03125l-4.46875 0q0.03125 0.796875 0.4375 1.234375q0.40625 0.4375 1.03125 0.4375q0.421875 0 0.703125 -0.21875q0.28125 -0.234375 0.4375 -0.734375zm0.09375 -1.8125q-0.015625 -0.765625 -0.40625 -1.171875q-0.375 -0.40625 -0.921875 -0.40625q-0.578125 0 -0.96875 0.421875q-0.375 0.4375 -0.375 1.15625l2.671875 0zm2.5531006 3.953125l2.421875 -3.46875l-2.328125 -3.265625l2.1875 0l1.1875 1.84375l1.265625 -1.84375l2.09375 0l-2.296875 3.1875l2.5 3.546875l-2.1875 0l-1.375 -2.09375l-1.375 2.09375l-2.09375 0zm8.271851 0l0 -1.78125l1.78125 0l0 1.78125l-1.78125 0zm5.4686127 -9.3125l0 3.421875q0.875 -1.0 2.078125 -1.0q0.609375 0 1.09375 0.234375q0.5 0.21875 0.75 0.578125q0.25 0.359375 0.34375 0.796875q0.09375 0.421875 0.09375 1.328125l0 3.953125l-1.78125 0l0 -3.5625q0 -1.0625 -0.109375 -1.34375q-0.09375 -0.28125 -0.359375 -0.453125q-0.25 -0.171875 -0.640625 -0.171875q-0.4375 0 -0.796875 0.21875q-0.34375 0.21875 -0.515625 0.65625q-0.15625 0.421875 -0.15625 1.28125l0 3.375l-1.78125 0l0 -9.3125l1.78125 0zm9.469482 2.578125l0 1.421875l-1.21875 0l0 2.703125q0 0.828125 0.03125 0.96875q0.03125 0.140625 0.15625 0.234375q0.125 0.078125 0.296875 0.078125q0.25 0 0.71875 -0.171875l0.15625 1.390625q-0.625 0.265625 -1.40625 0.265625q-0.484375 0 -0.875 -0.15625q-0.390625 -0.171875 -0.578125 -0.421875q-0.171875 -0.265625 -0.234375 -0.703125q-0.0625 -0.3125 -0.0625 -1.25l0 -2.9375l-0.8125 0l0 -1.421875l0.8125 0l0 -1.34375l1.796875 -1.046875l0 2.390625l1.21875 0zm1.2039948 0l1.640625 0l0 0.90625q0.890625 -1.0625 2.109375 -1.0625q0.640625 0 1.109375 0.265625q0.484375 0.265625 0.796875 0.796875q0.4375 -0.53125 0.953125 -0.796875q0.515625 -0.265625 1.09375 -0.265625q0.75 0 1.265625 0.296875q0.515625 0.296875 0.765625 0.890625q0.18750763 0.421875 0.18750763 1.390625l0 4.3125l-1.7812576 0l0 -3.859375q0 -1.0 -0.1875 -1.28125q-0.25 -0.390625 -0.765625 -0.390625q-0.375 0 -0.703125 0.234375q-0.328125 0.21875 -0.484375 0.671875q-0.140625 0.4375 -0.140625 1.390625l0 3.234375l-1.78125 0l0 -3.6875q0 -0.984375 -0.09375 -1.265625q-0.09375 -0.296875 -0.296875 -0.4375q-0.203125 -0.140625 -0.546875 -0.140625q-0.40625 0 -0.734375 0.234375q-0.328125 0.21875 -0.484375 0.640625q-0.140625 0.40625 -0.140625 1.375l0 3.28125l-1.78125 0l0 -6.734375zm11.991478 6.734375l0 -9.3125l1.78125 0l0 9.3125l-1.78125 0z" fill-rule="nonzero"></path><path fill="#cfe2f3" d="m5.3884516 45.296856l0 0c0 -7.4103317 6.0072603 -13.417591 13.41759 -13.417591l110.33017 0c3.5585632 0 6.97139 1.4136353 9.487671 3.9299202c2.5162811 2.5162888 3.9299164 5.929104 3.9299164 9.487671l0 53.66876c0 7.410324 -6.007263 13.417587 -13.417587 13.417587l-110.33017 0c-7.41033 0 -13.41759 -6.007263 -13.41759 -13.417587z" fill-rule="nonzero"></path><path stroke="#000000" stroke-width="2.0" stroke-linejoin="round" stroke-linecap="butt" d="m5.3884516 45.296856l0 0c0 -7.4103317 6.0072603 -13.417591 13.41759 -13.417591l110.33017 0c3.5585632 0 6.97139 1.4136353 9.487671 3.9299202c2.5162811 2.5162888 3.9299164 5.929104 3.9299164 9.487671l0 53.66876c0 7.410324 -6.007263 13.417587 -13.417587 13.417587l-110.33017 0c-7.41033 0 -13.41759 -6.007263 -13.41759 -13.417587z" fill-rule="nonzero"></path><path fill="#000000" d="m41.151035 79.05123l0 -13.59375l5.109375 0q1.546875 0 2.484375 0.40625q0.953125 0.40625 1.484375 1.265625q0.53125 0.859375 0.53125 1.796875q0 0.875 -0.46875 1.65625q-0.46875 0.765625 -1.4375 1.234375q1.234375 0.359375 1.890625 1.234375q0.671875 0.875 0.671875 2.0625q0 0.953125 -0.40625 1.78125q-0.390625 0.8125 -0.984375 1.265625q-0.59375 0.4375 -1.5 0.671875q-0.890625 0.21875 -2.1875 0.21875l-5.1875 0zm1.796875 -7.890625l2.9375 0q1.203125 0 1.71875 -0.15625q0.6875 -0.203125 1.03125 -0.671875q0.359375 -0.46875 0.359375 -1.1875q0 -0.671875 -0.328125 -1.1875q-0.328125 -0.515625 -0.9375 -0.703125q-0.59375 -0.203125 -2.0625 -0.203125l-2.71875 0l0 4.109375zm0 6.28125l3.390625 0q0.875 0 1.21875 -0.0625q0.625 -0.109375 1.046875 -0.359375q0.421875 -0.265625 0.6875 -0.765625q0.265625 -0.5 0.265625 -1.140625q0 -0.765625 -0.390625 -1.328125q-0.390625 -0.5625 -1.078125 -0.78125q-0.6875 -0.234375 -1.984375 -0.234375l-3.15625 0l0 4.671875zm10.490448 1.609375l0 -9.859375l1.5 0l0 1.5q0.578125 -1.046875 1.0625 -1.375q0.484375 -0.34375 1.078125 -0.34375q0.84375 0 1.71875 0.546875l-0.578125 1.546875q-0.609375 -0.359375 -1.234375 -0.359375q-0.546875 0 -0.984375 0.328125q-0.421875 0.328125 -0.609375 0.90625q-0.28125 0.890625 -0.28125 1.953125l0 5.15625l-1.671875 0zm5.603302 -4.921875q0 -2.734375 1.53125 -4.0625q1.265625 -1.09375 3.09375 -1.09375q2.0312538 0 3.3125038 1.34375q1.296875 1.328125 1.296875 3.671875q0 1.90625 -0.578125 3.0q-0.5625 1.078125 -1.65625 1.6875q-1.078125 0.59375 -2.3750038 0.59375q-2.0625 0 -3.34375 -1.328125q-1.28125 -1.328125 -1.28125 -3.8125zm1.71875 0q0 1.890625 0.828125 2.828125q0.828125 0.9375 2.078125 0.9375q1.2500038 0 2.0625038 -0.9375q0.828125 -0.953125 0.828125 -2.890625q0 -1.828125 -0.828125 -2.765625q-0.828125 -0.9375 -2.0625038 -0.9375q-1.25 0 -2.078125 0.9375q-0.828125 0.9375 -0.828125 2.828125zm11.110096 4.921875l-3.015625 -9.859375l1.71875 0l1.5625 5.6875l0.59375 2.125q0.03125 -0.15625 0.5 -2.03125l1.5781174 -5.78125l1.71875 0l1.46875 5.71875l0.484375 1.890625l0.578125 -1.90625l1.6875 -5.703125l1.625 0l-3.078125 9.859375l-1.734375 0l-1.578125 -5.90625l-0.375 -1.671875l-2.0 7.578125l-1.7343674 0zm10.972939 -2.9375l1.65625 -0.265625q0.140625 1.0 0.765625 1.53125q0.640625 0.515625 1.78125 0.515625q1.15625 0 1.703125 -0.46875q0.5625 -0.46875 0.5625 -1.09375q0 -0.5625 -0.484375 -0.890625q-0.34375 -0.21875 -1.703125 -0.5625q-1.84375 -0.46875 -2.5625 -0.796875q-0.703125 -0.34375 -1.078125 -0.9375q-0.359375 -0.609375 -0.359375 -1.328125q0 -0.65625 0.296875 -1.21875q0.3125 -0.5625 0.828125 -0.9375q0.390625 -0.28125 1.0625 -0.484375q0.671875 -0.203125 1.4375 -0.203125q1.171875 0 2.046875 0.34375q0.875 0.328125 1.28125 0.90625q0.421875 0.5625 0.578125 1.515625l-1.625 0.21875q-0.109375 -0.75 -0.65625 -1.171875q-0.53125 -0.4375 -1.5 -0.4375q-1.15625 0 -1.640625 0.390625q-0.484375 0.375 -0.484375 0.875q0 0.328125 0.203125 0.59375q0.203125 0.265625 0.640625 0.4375q0.25 0.09375 1.46875 0.4375q1.765625 0.46875 2.46875 0.765625q0.703125 0.296875 1.09375 0.875q0.40625 0.578125 0.40625 1.4375q0 0.828125 -0.484375 1.578125q-0.484375 0.734375 -1.40625 1.140625q-0.921875 0.390625 -2.078125 0.390625q-1.921875 0 -2.9375 -0.796875q-1.0 -0.796875 -1.28125 -2.359375zm16.75 -0.234375l1.71875 0.21875q-0.40625 1.5 -1.515625 2.34375q-1.09375 0.828125 -2.8125 0.828125q-2.15625 0 -3.421875 -1.328125q-1.265625 -1.328125 -1.265625 -3.734375q0 -2.484375 1.265625 -3.859375q1.28125 -1.375 3.328125 -1.375q1.984375 0 3.234375 1.34375q1.25 1.34375 1.25 3.796875q0 0.140625 -0.015625 0.4375l-7.34375 0q0.09375 1.625 0.921875 2.484375q0.828125 0.859375 2.0625 0.859375q0.90625 0 1.546875 -0.46875q0.65625 -0.484375 1.046875 -1.546875zm-5.484375 -2.703125l5.5 0q-0.109375 -1.234375 -0.625 -1.859375q-0.796875 -0.96875 -2.078125 -0.96875q-1.140625 0 -1.9375 0.78125q-0.78125 0.765625 -0.859375 2.046875zm9.094467 5.875l0 -9.859375l1.5 0l0 1.5q0.578125 -1.046875 1.0625 -1.375q0.484375 -0.34375 1.078125 -0.34375q0.84375 0 1.71875 0.546875l-0.578125 1.546875q-0.609375 -0.359375 -1.234375 -0.359375q-0.546875 0 -0.984375 0.328125q-0.421875 0.328125 -0.609375 0.90625q-0.28125 0.890625 -0.28125 1.953125l0 5.15625l-1.671875 0z" fill-rule="nonzero"></path><path fill="#cfe2f3" d="m146.27821 67.09974l51.921265 0l0 -4.1181107l8.236221 8.236221l-8.236221 8.236221l0 -4.1181107l-51.921265 0z" fill-rule="nonzero"></path><path stroke="#000000" stroke-width="2.0" stroke-linejoin="round" stroke-linecap="butt" d="m146.27821 67.09974l51.921265 0l0 -4.1181107l8.236221 8.236221l-8.236221 8.236221l0 -4.1181107l-51.921265 0z" fill-rule="nonzero"></path><path fill="#000000" fill-opacity="0.0" d="m613.3622 71.21785l50.740173 0" fill-rule="nonzero"></path><path stroke="#f3f3f3" stroke-width="2.0" stroke-linejoin="round" stroke-linecap="butt" d="m625.3622 71.21785l26.740173 0" fill-rule="evenodd"></path><path fill="#f3f3f3" stroke="#f3f3f3" stroke-width="2.0" stroke-linecap="butt" d="m625.3622 67.91438l-9.076172 3.3034668l9.076172 3.3034592z" fill-rule="evenodd"></path><path fill="#f3f3f3" stroke="#f3f3f3" stroke-width="2.0" stroke-linecap="butt" d="m652.10236 74.52131l9.076172 -3.3034592l-9.076172 -3.3034668z" fill-rule="evenodd"></path><path fill="#cfe2f3" d="m679.8858 95.95299l111.43823 0l0 64.41087c-55.716125 0 -55.716125 24.782043 -111.43823 12.391022zm9.181152 0l0 -8.3504715l110.677124 0l0 64.81493c-4.2070312 0 -8.420044 0.4489441 -8.420044 0.4489441l0 -56.913406zm8.629822 -8.3504715l0 -8.148445l111.63599 0l0 64.6129c-4.7943115 0 -9.588684 0.3367157 -9.588684 0.3367157l0 -56.80117z" fill-rule="nonzero"></path><path fill="#000000" fill-opacity="0.0" d="m679.8858 95.95299l111.43823 0l0 64.41087c-55.716125 0 -55.716125 24.782043 -111.43823 12.391022zm9.181152 0l0 -8.3504715l110.677124 0l0 64.81493c-4.2070312 0 -8.420044 0.4489441 -8.420044 0.4489441m-93.62726 -65.26388l0 -8.148445l111.63599 0l0 64.6129c-4.7943115 0 -9.588684 0.3367157 -9.588684 0.3367157" fill-rule="nonzero"></path><path fill="#000000" fill-opacity="0.0" d="m679.8858 172.75488c55.722107 12.391022 55.722107 -12.391022 111.43823 -12.391022l0 -7.497467c0 0 4.2130127 -0.4489441 8.420044 -0.4489441l0 -8.013763c0 0 4.7943726 -0.3367157 9.588684 -0.3367157l0 -64.6129l-111.63599 0l0 8.148445l-8.629822 0l0 8.3504715l-9.181152 0z" fill-rule="nonzero"></path><path stroke="#000000" stroke-width="2.0" stroke-linejoin="round" stroke-linecap="butt" d="m679.8858 95.95299l111.43823 0l0 64.41087c-55.716125 0 -55.716125 24.782043 -111.43823 12.391022zm9.181152 0l0 -8.3504715l110.677124 0l0 64.81493c-4.2070312 0 -8.420044 0.4489441 -8.420044 0.4489441m-93.62726 -65.26388l0 -8.148445l111.63599 0l0 64.6129c-4.7943115 0 -9.588684 0.3367157 -9.588684 0.3367157" fill-rule="nonzero"></path><path fill="#000000" d="m715.1787 137.39081q-0.546875 0.453125 -1.046875 0.640625q-0.484375 0.1875 -1.0625 0.1875q-0.9375 0 -1.453125 -0.453125q-0.5 -0.46875 -0.5 -1.171875q0 -0.421875 0.1875 -0.765625q0.203125 -0.34375 0.5 -0.546875q0.3125 -0.21875 0.703125 -0.328125q0.28125 -0.078125 0.859375 -0.140625q1.171875 -0.140625 1.71875 -0.34375q0.015625 -0.1875 0.015625 -0.25q0 -0.59375 -0.28125 -0.828125q-0.359375 -0.328125 -1.09375 -0.328125q-0.6875 0 -1.015625 0.234375q-0.3125 0.234375 -0.46875 0.84375l-0.953125 -0.125q0.125 -0.609375 0.421875 -0.984375q0.296875 -0.375 0.859375 -0.5625q0.5625 -0.203125 1.296875 -0.203125q0.734375 0 1.1875 0.171875q0.453125 0.171875 0.65625 0.4375q0.21875 0.25 0.3125 0.640625q0.046875 0.25 0.046875 0.90625l0 1.28125q0 1.34375 0.0625 1.703125q0.0625 0.359375 0.25 0.6875l-1.015625 0q-0.15625 -0.296875 -0.1875 -0.703125zm-0.09375 -2.15625q-0.515625 0.21875 -1.578125 0.359375q-0.59375 0.09375 -0.84375 0.203125q-0.234375 0.09375 -0.375 0.3125q-0.140625 0.203125 -0.140625 0.453125q0 0.390625 0.296875 0.65625q0.296875 0.25 0.859375 0.25q0.5625 0 0.984375 -0.25q0.4375 -0.25 0.65625 -0.671875q0.140625 -0.328125 0.140625 -0.96875l0 -0.34375zm3.1765137 2.859375l-0.890625 0l0 -7.875l0.96875 0l0 2.8125q0.609375 -0.765625 1.5625 -0.765625q0.53125 0 1.0 0.21875q0.46875 0.203125 0.765625 0.59375q0.3125 0.375 0.484375 0.921875q0.171875 0.53125 0.171875 1.15625q0 1.46875 -0.734375 2.265625q-0.71875 0.796875 -1.734375 0.796875q-1.015625 0 -1.59375 -0.84375l0 0.71875zm0 -2.890625q0 1.015625 0.28125 1.484375q0.453125 0.734375 1.234375 0.734375q0.625 0 1.078125 -0.546875q0.46875 -0.546875 0.46875 -1.640625q0 -1.109375 -0.4375 -1.640625q-0.4375 -0.53125 -1.078125 -0.53125q-0.625 0 -1.09375 0.546875q-0.453125 0.546875 -0.453125 1.59375zm4.6765137 0.03125q0 -1.578125 0.890625 -2.34375q0.734375 -0.625 1.796875 -0.625q1.171875 0 1.90625 0.765625q0.75 0.765625 0.75 2.125q0 1.109375 -0.328125 1.75q-0.328125 0.625 -0.96875 0.96875q-0.625 0.34375 -1.359375 0.34375q-1.203125 0 -1.953125 -0.765625q-0.734375 -0.765625 -0.734375 -2.21875zm1.0 0q0 1.109375 0.46875 1.65625q0.484375 0.53125 1.21875 0.53125q0.71875 0 1.1875 -0.546875q0.484375 -0.546875 0.484375 -1.671875q0 -1.046875 -0.484375 -1.59375q-0.484375 -0.546875 -1.1875 -0.546875q-0.734375 0 -1.21875 0.546875q-0.46875 0.53125 -0.46875 1.625zm9.035889 2.859375l0 -0.84375q-0.671875 0.96875 -1.8125 0.96875q-0.5 0 -0.953125 -0.1875q-0.4375 -0.203125 -0.65625 -0.484375q-0.203125 -0.296875 -0.28125 -0.71875q-0.0625 -0.28125 -0.0625 -0.90625l0 -3.53125l0.96875 0l0 3.15625q0 0.765625 0.0625 1.03125q0.09375 0.375 0.375 0.59375q0.296875 0.21875 0.734375 0.21875q0.4375 0 0.8125 -0.21875q0.390625 -0.234375 0.546875 -0.609375q0.15625 -0.390625 0.15625 -1.109375l0 -3.0625l0.96875 0l0 5.703125l-0.859375 0zm4.3014526 -0.859375l0.125 0.84375q-0.40625 0.09375 -0.71875 0.09375q-0.53125 0 -0.828125 -0.171875q-0.28125 -0.171875 -0.40625 -0.4375q-0.109375 -0.265625 -0.109375 -1.140625l0 -3.28125l-0.71875 0l0 -0.75l0.71875 0l0 -1.40625l0.953125 -0.59375l0 2.0l0.984375 0l0 0.75l-0.984375 0l0 3.34375q0 0.40625 0.046875 0.53125q0.0625 0.109375 0.171875 0.1875q0.125 0.0625 0.328125 0.0625q0.171875 0 0.4375 -0.03125zm1.1169434 0.859375l0 -1.09375l1.09375 0l0 1.09375l-1.09375 0zm2.6793823 0l0 -7.875l0.96875 0l0 2.828125q0.6875 -0.78125 1.71875 -0.78125q0.625 0 1.09375 0.25q0.46875 0.25 0.671875 0.6875q0.203125 0.4375 0.203125 1.28125l0 3.609375l-0.96875 0l0 -3.609375q0 -0.734375 -0.3125 -1.0625q-0.3125 -0.328125 -0.890625 -0.328125q-0.4375 0 -0.8125 0.21875q-0.375 0.21875 -0.546875 0.609375q-0.15625 0.375 -0.15625 1.046875l0 3.125l-0.96875 0zm8.051514 -0.859375l0.125 0.84375q-0.40625 0.09375 -0.71875 0.09375q-0.53125 0 -0.828125 -0.171875q-0.28125 -0.171875 -0.40625 -0.4375q-0.109375 -0.265625 -0.109375 -1.140625l0 -3.28125l-0.71875 0l0 -0.75l0.71875 0l0 -1.40625l0.953125 -0.59375l0 2.0l0.984375 0l0 0.75l-0.984375 0l0 3.34375q0 0.40625 0.046875 0.53125q0.0625 0.109375 0.171875 0.1875q0.125 0.0625 0.328125 0.0625q0.171875 0 0.4375 -0.03125zm0.8356323 0.859375l0 -5.703125l0.875 0l0 0.796875q0.265625 -0.421875 0.703125 -0.671875q0.453125 -0.25 1.015625 -0.25q0.640625 0 1.046875 0.265625q0.40625 0.25 0.578125 0.734375q0.671875 -1.0 1.75 -1.0q0.859375 0 1.3125 0.46875q0.453125 0.46875 0.453125 1.4375l0 3.921875l-0.953125 0l0 -3.59375q0 -0.578125 -0.09375 -0.828125q-0.09375 -0.265625 -0.34375 -0.421875q-0.25 -0.15625 -0.578125 -0.15625q-0.609375 0 -1.015625 0.40625q-0.390625 0.40625 -0.390625 1.28125l0 3.3125l-0.96875 0l0 -3.703125q0 -0.640625 -0.234375 -0.96875q-0.234375 -0.328125 -0.765625 -0.328125q-0.40625 0 -0.765625 0.21875q-0.34375 0.21875 -0.5 0.640625q-0.15625 0.40625 -0.15625 1.1875l0 2.953125l-0.96875 0zm8.861084 0l0 -7.875l0.96875 0l0 7.875l-0.96875 0z" fill-rule="nonzero"></path><path fill="#cfe2f3" d="m664.0945 29.139107l115.27557 0l0 70.13095l-14.026489 14.026527l-101.249084 0z" fill-rule="nonzero"></path><path fill="#a5b4c2" d="m765.34357 113.296585l2.8052979 -11.221222l11.221191 -2.8053055z" fill-rule="nonzero"></path><path fill="#000000" fill-opacity="0.0" d="m765.34357 113.296585l2.8052979 -11.221222l11.221191 -2.8053055l-14.026489 14.026527l-101.249084 0l0 -84.15748l115.27557 0l0 70.13095" fill-rule="nonzero"></path><path stroke="#000000" stroke-width="2.0" stroke-linejoin="round" stroke-linecap="butt" d="m765.34357 113.296585l2.8052979 -11.221222l11.221191 -2.8053055l-14.026489 14.026527l-101.249084 0l0 -84.15748l115.27557 0l0 70.13095" fill-rule="nonzero"></path><path fill="#000000" d="m698.1831 61.17896l0 -1.109375l0.96875 0l0 1.109375l-0.96875 0zm0 6.765629l0 -5.703129l0.96875 0l0 5.703129l-0.96875 0zm2.3518677 0l0 -5.703129l0.875 0l0 0.8125q0.625 -0.9375 1.8125 -0.9375q0.515625 0 0.953125 0.1875q0.4375 0.171875 0.640625 0.484375q0.21875 0.296875 0.3125 0.703125q0.046875 0.28125 0.046875 0.9531288l0 3.5l-0.96875 0l0 -3.46875q0 -0.5937538 -0.109375 -0.8750038q-0.109375 -0.296875 -0.40625 -0.46875q-0.28125 -0.1875 -0.671875 -0.1875q-0.609375 0 -1.0625 0.390625q-0.453125 0.390625 -0.453125 1.5000038l0 3.109375l-0.96875 0zm9.629578 0l0 -0.71875q-0.53125 0.84375 -1.59375 0.84375q-0.671875 0 -1.25 -0.375q-0.578125 -0.375 -0.890625 -1.046875q-0.3125 -0.671875 -0.3125 -1.546875q0 -0.859375 0.28125 -1.5468788q0.296875 -0.703125 0.859375 -1.0625q0.5625 -0.375 1.265625 -0.375q0.515625 0 0.921875 0.21875q0.40625 0.21875 0.65625 0.5625l0 -2.828125l0.96875 0l0 7.875004l-0.90625 0zm-3.046875 -2.84375q0 1.09375 0.453125 1.640625q0.46875 0.53125 1.09375 0.53125q0.640625 0 1.078125 -0.515625q0.4375 -0.515625 0.4375 -1.578125q0 -1.171875 -0.453125 -1.7187538q-0.4375 -0.546875 -1.109375 -0.546875q-0.640625 0 -1.078125 0.53125q-0.421875 0.515625 -0.421875 1.6562538zm9.176514 1.0l1.0 0.125q-0.234375 0.875 -0.875 1.359375q-0.640625 0.484375 -1.625 0.484375q-1.25 0 -1.984375 -0.765625q-0.734375 -0.765625 -0.734375 -2.15625q0 -1.4531288 0.734375 -2.2343788q0.75 -0.796875 1.921875 -0.796875q1.15625 0 1.875 0.78125q0.71875 0.765625 0.71875 2.1875038q0 0.078125 0 0.25l-4.25 0q0.046875 0.9375 0.515625 1.4375q0.484375 0.5 1.203125 0.5q0.53125 0 0.90625 -0.265625q0.375 -0.28125 0.59375 -0.90625zm-3.171875 -1.5625l3.1875 0q-0.0625 -0.7187538 -0.359375 -1.0781288q-0.46875 -0.546875 -1.203125 -0.546875q-0.671875 0 -1.125 0.453125q-0.453125 0.4375 -0.5 1.1718788zm4.5515137 3.40625l2.09375 -2.96875l-1.9375 -2.7343788l1.203125 0l0.890625 1.34375q0.234375 0.375 0.390625 0.6250038q0.234375 -0.3437538 0.4375 -0.6250038l0.953125 -1.34375l1.15625 0l-1.96875 2.6875038l2.125 3.015625l-1.1875 0l-1.171875 -1.765625l-0.3125 -0.484375l-1.5 2.25l-1.171875 0zm6.25 0l0 -1.09375l1.09375 0l0 1.09375l-1.09375 0zm2.6793823 0l0 -7.875004l0.96875 0l0 2.828125q0.6875 -0.78125 1.71875 -0.78125q0.625 0 1.09375 0.25q0.46875 0.25 0.671875 0.6875q0.203125 0.4375 0.203125 1.2812538l0 3.609375l-0.96875 0l0 -3.609375q0 -0.7343788 -0.3125 -1.0625038q-0.3125 -0.328125 -0.890625 -0.328125q-0.4375 0 -0.8125 0.21875q-0.375 0.21875 -0.546875 0.609375q-0.15625 0.3750038 -0.15625 1.0468788l0 3.125l-0.96875 0zm8.051514 -0.859375l0.125 0.84375q-0.40625 0.09375 -0.71875 0.09375q-0.53125 0 -0.828125 -0.171875q-0.28125 -0.171875 -0.40625 -0.4375q-0.109375 -0.265625 -0.109375 -1.140625l0 -3.2812538l-0.71875 0l0 -0.75l0.71875 0l0 -1.40625l0.953125 -0.59375l0 2.0l0.984375 0l0 0.75l-0.984375 0l0 3.3437538q0 0.40625 0.046875 0.53125q0.0625 0.109375 0.171875 0.1875q0.125 0.0625 0.328125 0.0625q0.171875 0 0.4375 -0.03125zm0.8356323 0.859375l0 -5.703129l0.875 0l0 0.796875q0.265625 -0.421875 0.703125 -0.671875q0.453125 -0.25 1.015625 -0.25q0.640625 0 1.046875 0.265625q0.40625 0.25 0.578125 0.734375q0.671875 -1.0 1.75 -1.0q0.859375 0 1.3125 0.46875q0.453125 0.46875 0.453125 1.4375038l0 3.921875l-0.953125 0l0 -3.59375q0 -0.5781288 -0.09375 -0.8281288q-0.09375 -0.265625 -0.34375 -0.421875q-0.25 -0.15625 -0.578125 -0.15625q-0.609375 0 -1.015625 0.40625q-0.390625 0.40625 -0.390625 1.2812538l0 3.3125l-0.96875 0l0 -3.703125q0 -0.6406288 -0.234375 -0.9687538q-0.234375 -0.328125 -0.765625 -0.328125q-0.40625 0 -0.765625 0.21875q-0.34375 0.21875 -0.5 0.640625q-0.15625 0.4062538 -0.15625 1.1875038l0 2.953125l-0.96875 0zm8.861145 0l0 -7.875004l0.96875 0l0 7.875004l-0.96875 0z" fill-rule="nonzero"></path></g></svg>

